<?xml version="1.0" encoding="utf-8"?>
<!-- Generator: Adobe Illustrator 17.0.0, SVG Export Plug-In . SVG Version: 6.00 Build 0)  -->
<!DOCTYPE svg PUBLIC "-//W3C//DTD SVG 1.1//EN" "http://www.w3.org/Graphics/SVG/1.1/DTD/svg11.dtd">
<svg version="1.1" id="Layer_1" xmlns="http://www.w3.org/2000/svg" xmlns:xlink="http://www.w3.org/1999/xlink" x="0px" y="0px"
	 width="100px" height="40px" viewBox="0 0 100 40" enable-background="new 0 0 100 40" xml:space="preserve">
<g>
	<path fill="#690A14" d="M15.02,22.392c-2.044,1.565-4.115,2.348-6.214,2.348c-2.21,0-3.821-0.82-4.833-2.458
		c-0.718-1.197-1.077-2.527-1.077-3.991c0-1.463,0.267-2.923,0.801-4.377c-1.289-0.865-1.998-2.025-2.127-3.48
		c-0.037-0.276-0.055-0.552-0.055-0.829c0-2.209,0.948-4.06,2.844-5.551C6.385,2.471,8.778,1.68,11.54,1.68
		c2.762,0,5.049,0.769,6.863,2.306c1.813,1.538,2.72,3.733,2.72,6.587c0,0.184,0,0.368,0,0.552c1.841-1.215,3.038-2.375,3.59-3.48
		c0.092-0.202,0.211-0.29,0.359-0.262c0.147,0.027,0.221,0.088,0.221,0.179c0,0.092-0.055,0.221-0.166,0.387
		c-1.086,1.712-2.458,3.093-4.115,4.143c-0.074,0.866-0.309,1.906-0.704,3.121c-0.396,1.215-1.063,2.472-2.002,3.769
		C17.367,20.28,16.271,21.417,15.02,22.392z M19.494,10.545c0-3.111-0.994-5.413-2.983-6.904c-1.325-0.994-2.872-1.491-4.64-1.491
		c-0.516,0-1.04,0.046-1.574,0.138C8.051,2.619,6.219,3.549,4.802,5.077C3.605,6.402,3.006,7.903,3.006,9.578
		c0,1.454,0.396,2.522,1.187,3.203c0.718-1.528,1.777-3.075,3.176-4.64c1.528-1.712,3.139-2.762,4.833-3.148
		c0.276-0.056,0.63-0.083,1.063-0.083c0.433,0,0.934,0.175,1.505,0.525c0.129,0.074,0.198,0.148,0.207,0.221
		c0.009,0.074-0.033,0.129-0.125,0.166c-0.092,0.037-0.23,0.023-0.414-0.042c-0.184-0.064-0.493-0.097-0.925-0.097
		c-0.433,0-1.054,0.221-1.864,0.663c-0.81,0.442-1.629,1.132-2.458,2.071c-1.639,1.86-2.836,3.627-3.59,5.302
		c1.16,0.534,2.549,0.801,4.17,0.801c0.718,0,1.482-0.046,2.292-0.138c2.633-0.35,5.091-1.141,7.374-2.375
		C19.475,11.511,19.494,11.024,19.494,10.545z M19.273,12.975c-3.075,1.639-6.315,2.458-9.721,2.458
		c-1.657,0-3.112-0.249-4.364-0.746c-0.571,1.491-0.856,2.78-0.856,3.866c0,2.541,0.764,4.189,2.292,4.943
		c0.829,0.387,1.652,0.58,2.472,0.58c0.819,0,1.615-0.175,2.389-0.525c1.62-0.736,3.075-1.887,4.364-3.452
		c1.289-1.565,2.265-3.286,2.927-5.164C19.033,14.2,19.199,13.546,19.273,12.975z"/>
	<path fill="#690A14" d="M27.613,4.828c0,0.81-0.281,1.487-0.842,2.03c-0.562,0.543-1.211,0.934-1.947,1.174
		c-0.074,0.037-0.138,0.055-0.194,0.055s-0.083-0.046-0.083-0.138c0-0.092,0.073-0.165,0.221-0.221
		c0.552-0.184,1.022-0.483,1.409-0.898c0.386-0.414,0.616-0.916,0.69-1.505c-0.24,0.184-0.506,0.276-0.801,0.276
		c-0.295,0-0.534-0.111-0.718-0.332c-0.184-0.221-0.249-0.487-0.194-0.801c0.037-0.313,0.189-0.58,0.456-0.801
		c0.267-0.221,0.57-0.331,0.911-0.331c0.34,0,0.608,0.148,0.801,0.442C27.517,4.073,27.613,4.423,27.613,4.828z"/>
	<path fill="#690A14" d="M34.931,22.061c-1.712,1.381-3.609,2.071-5.689,2.071c-2.375,0-3.839-0.663-4.391-1.989
		c-0.129-0.313-0.193-0.677-0.193-1.091c0-0.414,0.211-0.861,0.635-1.339c0.663-0.755,1.583-1.132,2.762-1.132
		c0.791,0,1.588,0.143,2.389,0.428c0.801,0.286,2.223,0.971,4.267,2.057c0.921-0.884,1.841-2.062,2.762-3.535
		c0.921-1.473,1.717-2.895,2.389-4.267c0.672-1.371,1.491-2.867,2.458-4.488c0.967-1.62,1.928-2.964,2.886-4.032
		c-2.062-1.233-4.253-1.85-6.573-1.85c-0.958,0-1.933,0.101-2.927,0.304c-2.854,0.607-5.026,1.85-6.517,3.728
		c-0.921,1.142-1.381,2.228-1.381,3.259c0,1.4,0.672,2.311,2.016,2.734c0.479,0.129,0.893,0.193,1.243,0.193
		c0.349,0,0.741-0.055,1.174-0.165c0.432-0.111,0.86-0.368,1.284-0.773c0.81-0.81,1.243-1.565,1.298-2.265
		c0.018-0.166,0.125-0.225,0.318-0.179c0.194,0.046,0.272,0.189,0.235,0.428c-0.184,1.344-0.893,2.366-2.127,3.065
		c-0.755,0.405-1.509,0.608-2.264,0.608l-1.436-0.249c-1.4-0.478-2.32-1.371-2.762-2.679c-0.184-0.497-0.276-0.994-0.276-1.491
		c0-1.013,0.377-2.016,1.132-3.01c1.62-2.172,4.492-3.563,8.616-4.17c0.81-0.11,1.611-0.165,2.403-0.165
		c2.559,0,4.999,0.608,7.319,1.822c0.718-0.829,1.381-1.459,1.988-1.891c0.608-0.433,1.095-0.649,1.464-0.649
		c0.202,0,0.322,0.042,0.359,0.125c0.036,0.082,0.032,0.148-0.014,0.193c-0.046,0.046-0.106,0.069-0.179,0.069
		c-0.313,0-0.718,0.332-1.215,0.994c-0.497,0.663-0.902,1.28-1.215,1.85c1.97,1.308,3.47,2.983,4.502,5.026
		c0.829,1.639,1.243,3.425,1.243,5.358c0,2.394-0.571,4.299-1.712,5.717c-0.939,1.16-2.081,1.979-3.424,2.458
		c-1.602,0.57-3.186,0.856-4.75,0.856C39.856,23.994,37.159,23.349,34.931,22.061z M33.992,21.619
		c-2.154-1.031-3.517-1.648-4.087-1.85c-0.571-0.202-1.128-0.304-1.671-0.304c-0.543,0-0.976,0.203-1.298,0.608
		c-0.322,0.405-0.483,0.769-0.483,1.091c0,0.322,0.073,0.631,0.221,0.925c0.387,0.792,1.178,1.187,2.375,1.187
		C30.816,23.276,32.464,22.724,33.992,21.619z M35.594,21.564c1.859,1.105,4.041,1.657,6.545,1.657c2.909,0,5.229-0.829,6.959-2.486
		c1.381-1.344,2.071-3.203,2.071-5.579c0-1.694-0.332-3.286-0.994-4.778c-0.829-1.896-2.053-3.48-3.673-4.75
		c-0.534,0.829-1.56,2.499-3.079,5.012c-1.519,2.513-2.803,4.553-3.853,6.117c-1.049,1.565-1.878,2.674-2.486,3.328
		C36.478,20.74,35.981,21.232,35.594,21.564z"/>
	<path fill="#690A14" d="M59.178,13.389c1.344,0,2.016,0.847,2.016,2.541c0,0.773-0.203,1.602-0.608,2.486
		c-0.516,1.197-1.289,2.283-2.32,3.259c0.239,0.46,0.672,0.69,1.298,0.69c0.497,0,0.967-0.248,1.408-0.746
		c0.552-0.57,0.948-1.072,1.187-1.505c0.239-0.432,0.414-0.75,0.525-0.953c0.111-0.202,0.253-0.493,0.428-0.87
		c0.175-0.377,0.28-0.607,0.317-0.69s0.101-0.125,0.194-0.125c0.184-0.018,0.276,0.046,0.276,0.194c0,0.055-0.019,0.12-0.055,0.193
		L63.68,18.25c-0.11,0.258-0.193,0.442-0.249,0.552c-0.055,0.11-0.152,0.309-0.29,0.594c-0.138,0.286-0.258,0.511-0.359,0.677
		c-0.102,0.166-0.24,0.387-0.414,0.663c-0.175,0.276-0.332,0.497-0.47,0.663s-0.309,0.35-0.511,0.552
		c-0.203,0.203-0.396,0.359-0.58,0.469c-0.46,0.276-0.893,0.414-1.298,0.414c-0.755,0-1.344-0.239-1.768-0.718
		c-0.847,0.626-1.629,0.939-2.348,0.939c-1.344,0-2.016-0.847-2.016-2.541c0-0.773,0.203-1.602,0.608-2.486
		c0.552-1.289,1.33-2.384,2.334-3.286C57.323,13.841,58.276,13.389,59.178,13.389z M59.482,14.245c-0.497,0-1.087,0.332-1.767,0.994
		c-0.681,0.663-1.289,1.565-1.823,2.706c-0.645,1.325-0.967,2.412-0.967,3.259c0,0.847,0.322,1.27,0.967,1.27
		c0.46,0,0.976-0.249,1.546-0.746c-0.295-0.424-0.442-0.875-0.442-1.353c0.037-0.792,0.359-1.187,0.967-1.187
		c0.239,0,0.437,0.082,0.594,0.248c0.156,0.166,0.235,0.318,0.235,0.456s-0.019,0.281-0.055,0.428
		c0.313-0.46,0.672-1.114,1.077-1.96c0.46-0.939,0.69-1.86,0.69-2.762C60.504,14.697,60.163,14.245,59.482,14.245z"/>
	<path fill="#690A14" d="M59.592,31.782c-0.81,0-1.436-0.171-1.878-0.511c-0.442-0.341-0.663-0.751-0.663-1.229
		c0-0.479,0.138-1.022,0.414-1.629c0.479-0.939,1.344-1.694,2.596-2.265c0.939-0.442,2.181-0.852,3.728-1.229
		c1.546-0.378,2.541-0.631,2.983-0.76c0.663-1.16,1.454-3.231,2.375-6.214c-1.068,1.878-1.96,3.195-2.679,3.949
		c-0.718,0.755-1.446,1.132-2.182,1.132c-0.994,0-1.574-0.414-1.74-1.243c-0.074-0.129-0.092-0.322-0.055-0.58
		s0.059-0.442,0.069-0.552c0.009-0.111,0.069-0.29,0.18-0.539c0.11-0.248,0.184-0.428,0.221-0.539
		c0.202-0.423,0.377-0.755,0.525-0.994c-0.295,0-0.378-0.147-0.249-0.442l0.497-0.967c0.625-1.197,1.141-2.209,1.546-3.038
		c0.184-0.387,0.543-0.58,1.077-0.58h1.684c-0.037,0.037-0.129,0.11-0.276,0.221c-0.332,0.221-0.58,0.479-0.746,0.773
		c-0.663,1.142-1.491,2.771-2.486,4.888c-0.405,0.866-0.608,1.501-0.608,1.906c0,0.405,0.069,0.69,0.207,0.856
		c0.138,0.166,0.327,0.249,0.566,0.249c0.349,0,0.838-0.368,1.463-1.105c1.307-1.528,2.752-3.931,4.336-7.208
		c0.203-0.387,0.562-0.58,1.077-0.58h1.491c-0.479,0.331-0.856,0.75-1.132,1.256c-0.276,0.506-0.575,1.192-0.898,2.057
		c-0.322,0.866-0.727,2.016-1.215,3.452c-0.488,1.436-0.861,2.513-1.118,3.231c1.73-0.515,3.056-1.427,3.977-2.734
		c0.405-0.571,0.985-1.583,1.74-3.038c0.129-0.257,0.244-0.359,0.345-0.304c0.101,0.056,0.152,0.129,0.152,0.221
		c0,0.092-0.152,0.447-0.456,1.063c-0.304,0.617-0.612,1.187-0.925,1.712c-0.313,0.525-0.718,1.063-1.215,1.616
		c-0.497,0.552-1.049,0.99-1.657,1.312c-0.608,0.322-1.418,0.667-2.43,1.036c-1.418,2.577-2.844,4.474-4.281,5.689
		C62.612,31.23,61.157,31.782,59.592,31.782z M57.991,29.048c-0.202,0.405-0.304,0.778-0.304,1.118c0,0.341,0.129,0.603,0.387,0.787
		c0.258,0.184,0.58,0.276,0.967,0.276c1.068,0,2.21-0.548,3.425-1.643c1.215-1.095,2.282-2.269,3.203-3.521l0.608-1.022
		c-3.038,0.791-4.952,1.362-5.744,1.712C59.353,27.271,58.506,28.035,57.991,29.048z"/>
	<path fill="#690A14" d="M75.692,18.485c-0.148,0.433-0.272,0.847-0.373,1.243c-0.102,0.396-0.152,0.792-0.152,1.188
		s0.092,0.764,0.276,1.105c0.184,0.341,0.479,0.511,0.884,0.511c0.663,0,1.307-0.446,1.933-1.339
		c0.625-0.893,1.289-2.03,1.988-3.411c0.147-0.257,0.286-0.359,0.414-0.304c0.092,0.074,0.11,0.171,0.055,0.29
		c-0.055,0.12-0.171,0.378-0.345,0.773c-0.175,0.396-0.304,0.672-0.387,0.829c-0.083,0.157-0.23,0.433-0.442,0.829
		c-0.212,0.396-0.396,0.691-0.552,0.884c-0.157,0.194-0.368,0.442-0.635,0.746c-0.267,0.304-0.521,0.529-0.76,0.677
		c-0.645,0.405-1.252,0.608-1.823,0.608c-0.571,0-1.013-0.124-1.325-0.373c-0.313-0.248-0.502-0.515-0.566-0.801
		c-0.065-0.285-0.097-0.539-0.097-0.76c0-0.221,0.009-0.506,0.028-0.856c0.055-0.589,0.17-1.16,0.345-1.712
		c0.175-0.552,0.271-0.865,0.29-0.939c0.423-1.528,1.026-3.194,1.809-4.999c0.782-1.804,1.445-3.162,1.988-4.073
		c0.543-0.911,0.971-1.533,1.284-1.864c0.626-0.663,1.243-0.994,1.85-0.994c0.424,0,0.709,0.304,0.856,0.911
		c0.018,0.11,0.028,0.248,0.028,0.414c0,0.626-0.221,1.418-0.663,2.375c-1.584,3.517-3.47,6.279-5.661,8.285
		C75.922,17.799,75.84,18.052,75.692,18.485z M78.951,13.224c0.92-1.454,1.597-2.693,2.03-3.714
		c0.432-1.022,0.649-1.717,0.649-2.085c0-0.368-0.065-0.552-0.193-0.552c-0.184,0-0.534,0.364-1.049,1.091
		c-0.516,0.727-1.211,2.035-2.085,3.922c-0.875,1.887-1.588,3.54-2.14,4.957C77.101,15.884,78.03,14.678,78.951,13.224z"/>
	<path fill="#690A14" d="M81.492,18.802c-0.258,0.626-0.387,1.325-0.387,2.099c0,0.516,0.115,0.925,0.345,1.229
		c0.23,0.304,0.557,0.456,0.98,0.456c1.675,0,3.194-1.574,4.557-4.722c0.129-0.294,0.285-0.423,0.469-0.387
		c0.073,0.019,0.111,0.065,0.111,0.138c0,0.074-0.207,0.557-0.621,1.45c-0.414,0.893-0.833,1.616-1.256,2.168
		c-0.939,1.289-2.099,1.933-3.48,1.933c-0.737,0-1.363-0.239-1.878-0.718c-0.516-0.478-0.773-1.132-0.773-1.961
		c0-0.829,0.198-1.707,0.594-2.637c0.395-0.929,0.934-1.795,1.615-2.596c0.681-0.801,1.464-1.385,2.348-1.754
		c0.423-0.184,0.829-0.276,1.215-0.276s0.746,0.111,1.077,0.332c0.313,0.258,0.47,0.543,0.47,0.856c0,1.105-0.663,2.164-1.988,3.176
		c-0.405,0.313-0.976,0.594-1.713,0.842C82.44,18.678,81.878,18.802,81.492,18.802z M86.131,14.384c0-0.368-0.148-0.552-0.442-0.552
		c-0.516,0-1.298,0.635-2.348,1.906c-0.626,0.773-1.178,1.639-1.657,2.596c0.313,0,0.769-0.111,1.367-0.332
		c0.598-0.221,1.118-0.515,1.56-0.884C85.625,16.252,86.131,15.341,86.131,14.384z"/>
	<path fill="#690A14" d="M92.897,4.828c0,0.81-0.281,1.487-0.842,2.03c-0.562,0.543-1.211,0.934-1.947,1.174
		c-0.074,0.037-0.138,0.055-0.194,0.055s-0.083-0.046-0.083-0.138c0-0.092,0.073-0.165,0.221-0.221
		c0.552-0.184,1.022-0.483,1.409-0.898c0.386-0.414,0.616-0.916,0.69-1.505c-0.24,0.184-0.506,0.276-0.801,0.276
		c-0.295,0-0.534-0.111-0.718-0.332c-0.184-0.221-0.249-0.487-0.194-0.801c0.037-0.313,0.189-0.58,0.456-0.801
		c0.267-0.221,0.57-0.331,0.911-0.331c0.34,0,0.608,0.148,0.801,0.442C92.801,4.073,92.897,4.423,92.897,4.828z"/>
	<path fill="#690A14" d="M93.808,22.53c0.239,0.037,0.405,0.055,0.497,0.055c0.736,0,1.463-0.432,2.182-1.298
		c0.387-0.479,1.077-1.685,2.071-3.618c0.037-0.092,0.101-0.138,0.194-0.138C98.917,17.514,99,17.578,99,17.725
		c0,0.037-0.041,0.143-0.124,0.318c-0.083,0.175-0.161,0.35-0.235,0.525c-0.074,0.175-0.193,0.428-0.359,0.76
		c-0.166,0.331-0.309,0.598-0.428,0.801c-0.12,0.203-0.272,0.451-0.455,0.746c-0.184,0.295-0.369,0.525-0.552,0.69l-0.58,0.608
		c-0.313,0.313-0.681,0.534-1.105,0.663c-0.681,0.221-1.344,0.239-1.988,0.055c-0.424,0.184-0.801,0.276-1.132,0.276
		c-1.308,0-2.099-0.516-2.375-1.547c-0.056-0.239-0.083-0.529-0.083-0.87s0.115-0.667,0.345-0.98
		c0.23-0.313,0.474-0.479,0.732-0.497c0.939-1.786,1.74-3.397,2.403-4.833c0.736-1.565,1.592-2.348,2.568-2.348
		c0.258,0,0.511,0.06,0.76,0.18c0.249,0.12,0.34,0.253,0.276,0.4c-0.065,0.148-0.198,0.175-0.4,0.083
		c-0.203-0.092-0.378-0.138-0.525-0.138c-0.148,0-0.276,0.028-0.387,0.083c-0.626,0.295-0.939,0.93-0.939,1.906
		c0,0.516,0.073,0.939,0.221,1.27c0.147,0.331,0.313,0.69,0.497,1.077c0.423,0.958,0.635,1.74,0.635,2.348s-0.193,1.206-0.58,1.795
		C94.802,21.684,94.342,22.162,93.808,22.53z M90.798,21.592c0,0.11,0.009,0.23,0.028,0.359c0.147,0.497,0.488,0.746,1.022,0.746
		c0.221,0,0.405-0.037,0.552-0.111c-0.681-0.423-1.049-1.114-1.105-2.071C90.963,20.846,90.798,21.205,90.798,21.592z
		 M92.869,22.337c0.81-0.626,1.215-1.639,1.215-3.038c0-0.57-0.065-1.353-0.194-2.348c-0.129-0.994-0.193-1.666-0.193-2.016
		c0-0.349,0.009-0.589,0.027-0.718c-1.399,2.799-2.264,4.502-2.596,5.109c0.387,0,0.58,0.276,0.58,0.829
		C91.709,21.242,92.096,21.969,92.869,22.337z"/>
</g>
<g>
	<path fill="#231F20" d="M7.282,26.752c-0.423-0.257-0.897-0.386-1.422-0.386s-0.972,0.164-1.341,0.49
		c-0.369,0.327-0.554,0.774-0.554,1.341v0.08c0,0.674,0.375,1.29,1.124,1.847c0.322,0.236,0.682,0.468,1.084,0.699
		c0.401,0.23,0.803,0.476,1.204,0.739c0.401,0.262,0.766,0.541,1.092,0.836c0.327,0.294,0.595,0.656,0.803,1.084
		c0.208,0.428,0.313,0.9,0.313,1.414v0.16c0,1.017-0.346,1.826-1.036,2.425c-0.691,0.6-1.545,0.899-2.562,0.899
		c-1.339,0-2.378-0.551-3.116-1.654v-0.868c0.278,0.611,0.688,1.106,1.229,1.486c0.54,0.381,1.212,0.57,2.015,0.57
		c0.803,0,1.499-0.257,2.087-0.771s0.883-1.199,0.883-2.056v-0.096c0-0.535-0.139-1.025-0.417-1.469
		c-0.279-0.444-0.627-0.808-1.044-1.092c-0.417-0.284-0.873-0.581-1.365-0.892c-0.493-0.31-0.948-0.599-1.365-0.867
		c-0.418-0.267-0.766-0.605-1.044-1.012c-0.278-0.407-0.417-0.851-0.417-1.333v-0.113c0-0.749,0.241-1.322,0.722-1.718
		c0.482-0.396,1.077-0.595,1.783-0.595c0.985,0,1.767,0.364,2.345,1.092v0.819C8.04,27.362,7.705,27.009,7.282,26.752z"/>
	<path fill="#231F20" d="M15.482,26.11v0.466h-2.747v11.58h-0.53v-11.58H9.427V26.11H15.482z"/>
	<path fill="#231F20" d="M17.007,26.11h4.32v0.466h-3.791v6.553h3.164v0.466h-3.164v4.096h3.791v0.466h-4.32V26.11z"/>
	<path fill="#231F20" d="M28.218,25.82l6.023,12.335h-0.562l-2.281-4.593h-6.441l-2.249,4.593h-0.498L28.218,25.82z M28.17,26.929
		l-3.004,6.168h6.039L28.17,26.929z"/>
	<path fill="#231F20" d="M35.927,26.11h0.513v4.417l5.092-4.417h0.642l-5.509,4.802l6.922,7.243h-0.707l-6.424-6.697v6.697h-0.53
		V26.11z"/>
	<path fill="#231F20" d="M59.52,26.11h0.53v12.046h-0.53v-4.593h-8.255v4.593h-0.53V26.11h0.53v6.987h8.255V26.11z"/>
	<path fill="#231F20" d="M63.801,36.485c-1.216-1.253-1.823-2.717-1.823-4.392c0-1.676,0.615-3.127,1.846-4.352
		c1.231-1.226,2.709-1.839,4.433-1.839s3.196,0.61,4.417,1.831c1.221,1.221,1.832,2.674,1.832,4.361c0,1.686-0.605,3.153-1.815,4.4
		c-1.21,1.248-2.656,1.871-4.337,1.871h-0.241C66.453,38.364,65.016,37.738,63.801,36.485z M73.975,32.125
		c0-1.579-0.56-2.934-1.678-4.064c-1.119-1.129-2.468-1.695-4.047-1.695c-1.58,0-2.931,0.565-4.055,1.695
		c-1.124,1.13-1.687,2.485-1.687,4.064s0.562,2.937,1.687,4.072c1.124,1.135,2.473,1.702,4.047,1.702
		c1.573,0,2.923-0.567,4.047-1.702C73.413,35.061,73.975,33.704,73.975,32.125z"/>
	<path fill="#231F20" d="M80.11,38.38h-0.161c-0.985,0-1.817-0.342-2.497-1.027c-0.68-0.685-1.019-1.547-1.019-2.586V26.11h0.53
		v8.641c0,0.91,0.294,1.665,0.883,2.265s1.317,0.899,2.184,0.899c0.867,0,1.593-0.297,2.176-0.891
		c0.584-0.595,0.875-1.352,0.875-2.273V26.11h0.53v8.625c0,1.049-0.34,1.919-1.02,2.609C81.911,38.035,81.084,38.38,80.11,38.38z"/>
	<path fill="#231F20" d="M89.867,26.752c-0.423-0.257-0.897-0.386-1.422-0.386c-0.525,0-0.972,0.164-1.341,0.49
		c-0.369,0.327-0.554,0.774-0.554,1.341v0.08c0,0.674,0.375,1.29,1.124,1.847c0.322,0.236,0.682,0.468,1.084,0.699
		c0.401,0.23,0.803,0.476,1.204,0.739c0.401,0.262,0.766,0.541,1.092,0.836s0.595,0.656,0.803,1.084
		c0.208,0.428,0.313,0.9,0.313,1.414v0.16c0,1.017-0.346,1.826-1.036,2.425c-0.691,0.6-1.545,0.899-2.562,0.899
		c-1.339,0-2.378-0.551-3.116-1.654v-0.868c0.278,0.611,0.688,1.106,1.229,1.486c0.54,0.381,1.212,0.57,2.015,0.57
		c0.803,0,1.499-0.257,2.087-0.771s0.883-1.199,0.883-2.056v-0.096c0-0.535-0.139-1.025-0.417-1.469
		c-0.279-0.444-0.627-0.808-1.044-1.092c-0.417-0.284-0.873-0.581-1.365-0.892c-0.493-0.31-0.948-0.599-1.365-0.867
		c-0.418-0.267-0.766-0.605-1.044-1.012c-0.278-0.407-0.417-0.851-0.417-1.333v-0.113c0-0.749,0.241-1.322,0.722-1.718
		c0.482-0.396,1.077-0.595,1.783-0.595c0.985,0,1.767,0.364,2.345,1.092v0.819C90.624,27.362,90.29,27.009,89.867,26.752z"/>
	<path fill="#231F20" d="M94.019,26.11h4.32v0.466h-3.791v6.553h3.164v0.466h-3.164v4.096h3.791v0.466h-4.32V26.11z"/>
</g>
</svg>
